<svg xmlns="http://www.w3.org/2000/svg" xmlns:xlink="http://www.w3.org/1999/xlink" version="1.1" x="0px" y="0px" viewBox="0 0 76 95" enable-background="new 0 0 76 76" xml:space="preserve" stroke="#0a5c80" stroke-width="3.3px"><path d="M57,10H19c-0.552,0-1,0.448-1,1v54c0,0.41,0.251,0.779,0.633,0.931c0.381,0.148,0.816,0.053,1.098-0.248L38,46.132  l18.27,19.551C56.462,65.89,56.729,66,57,66c0.123,0,0.248-0.022,0.367-0.069C57.749,65.779,58,65.41,58,65V11  C58,10.448,57.553,10,57,10z M56,62.465l-17.27-18.48c-0.189-0.202-0.454-0.317-0.73-0.317s-0.542,0.115-0.73,0.317L20,62.465V12h36  V62.465z"/></svg>