<svg xmlns="http://www.w3.org/2000/svg" width="1599" height="300" fill="none"><style>:root { --primary : #ffffff; }</style><g clip-path="url(#a)"><path fill="#4C759F" fill-rule="evenodd" d="M300 1.84h44.74v40.42h20.92V1.84h44.74v119.7h-44.74V76.83h-20.92v44.71H300V1.84zm549.93 119.7h44.76V78.17c1.43-.14 2.94-.14 4.1-.14 10.74 0 12.21 5.1 14.01 18l1.16 8.89c.67 5.36 1.97 10.82 3.47 16.62h45.35c-1.96-8.85-3.45-15.97-4.13-21.3l-1.48-12.8c-2.13-17.24-5.95-24.58-21.92-27.28 15.51-4.16 23.4-13.44 23.4-27.9 0-23.93-15.32-30.4-48-30.4h-60.72v119.68zm44.76-70.31V28.62c1.9-.19 3.6-.19 5.08-.19 10.06 0 14.5 3.18 14.5 10.64 0 7.64-5.59 12.25-16.31 12.25-1 0-2.18 0-3.27-.1zm176.05 31.9v.97c0 8.18 3.63 11.95 11.35 11.95 6.98 0 11.09-3.46 11.09-8.59 0-3.85-1.66-6.82-4.66-8.3-6.09-3-16.81-4.7-30.81-9.2-19.15-6.14-28.07-15.58-28.07-32.36 0-23.46 18.83-37.6 53.46-37.6 31.49 0 48.14 11.8 48.14 32.9v2.5h-39.4c-.51-7.15-3.78-10.62-10.38-10.62-6.1 0-9.9 3.47-9.9 7.97 0 8.36 8.25 8.02 23.26 12.18 27.58 7.4 40.75 15.06 40.75 36.8 0 25.34-20.11 41.8-54.46 41.8-34.81 0-53.29-13.25-53.29-36.08 0-1.31 0-2.77.19-4.32h42.73zM492.92 1.84h88.9v30.72H537.8v13h40.9v30.76h-40.9v14.13h45.5v31.08h-90.38V1.84zm802.37 31.91h-28.55v87.78h-45.82V33.75h-28.75V1.85h103.12v31.9zm-647.44 88h45.08l4.38-19.18h34.52l4.13 19.17h49L747.5 1.84h-60.39l-39.27 119.9zm77.51-48.38h-21.1L715.2 26.1l10.16 47.27z" clip-rule="evenodd"/><path stroke="#99989D" stroke-width=".75" d="M15.88 185.3h1558.24"/><path fill="#99989D" fill-rule="evenodd" d="M8.97 291.56H29.9v7.56H0v-51.18h8.97v43.62zm58.7 7.56h-9v-51.18h9v51.18zm34.12 0v-51.18h28.18v7.42h-19.2v14.58h18.33v7.26h-18.33v21.92h-8.98zm88.95 0h-30.12v-51.18h29.67v7.42h-20.78v13.85h19.21v7.18h-19.2v15.32h21.2v7.42l.02-.01zm57.64-42.82a24.85 24.85 0 0 0-10.09-2.2c-2.77 0-4.98.6-6.64 1.8a5.52 5.52 0 0 0-2.48 4.65 5.42 5.42 0 0 0 1.82 4.4c.7.68 1.69 1.37 2.92 2.05 1.24.69 2.85 1.42 4.83 2.2 4.64 1.82 8 3.89 10.08 6.24 2.08 2.34 3.12 5.32 3.12 8.94 0 2.35-.44 4.48-1.33 6.42a13.98 13.98 0 0 1-3.75 4.91 17.67 17.67 0 0 1-5.83 3.15 24.09 24.09 0 0 1-7.64 1.14c-2.37 0-4.6-.18-6.71-.51-2.12-.35-4.2-.92-6.2-1.69l.9-7.92a24.58 24.58 0 0 0 11.41 2.86c2.98 0 5.4-.64 7.25-1.9a6.14 6.14 0 0 0 2.78-5.35c.01-.95-.14-1.9-.44-2.8-.34-.89-.9-1.7-1.6-2.34a14.8 14.8 0 0 0-3.09-2.16 43.3 43.3 0 0 0-4.89-2.24 38.2 38.2 0 0 1-6-2.9 16.83 16.83 0 0 1-3.98-3.26 11.08 11.08 0 0 1-2.18-3.78c-.47-1.48-.7-3.03-.67-4.58 0-2.15.42-4.12 1.26-5.9.84-1.78 2.03-3.3 3.56-4.54a16.61 16.61 0 0 1 5.56-2.9 24.07 24.07 0 0 1 7.2-1.03c2.08 0 4.07.15 5.97.44 1.9.3 3.82.79 5.75 1.47l-.89 7.33zm44.07 42.82v-43.76l-15.14.2v-7.62h39.25v7.63l-15.06-.22v43.77h-9.05zm57.27-51.18 6.3 10.34 1.83 3.04a272.1 272.1 0 0 1 4.08 7.04c.61 1.1 1.12 1.97 1.51 2.6h.16c.35-.63.83-1.5 1.48-2.6 1.97-3.37 3.95-6.73 5.94-10.08l6.22-10.33h10.1l-19.52 30.2v20.97h-8.98v-20.9l-19.8-30.28h10.69-.01zm74.56 43.62h20.92v7.56h-29.9v-51.18h8.98v43.62zm79.83 7.56h-30.13v-51.18h29.69v7.42h-20.78v13.85h19.21v7.18h-19.2v15.32h21.22v7.42-.01zm117.66 0h-9.87l-4.97-12.32h-23.3l-4.96 12.32h-9.37l21.15-51.18h9.8l21.5 51.18h.02zm-23-33.58a67.1 67.1 0 0 1-.85-2.35l-1-2.86c-.34-.94-.65-1.9-.93-2.86l-.7-2.34h-.16l-.77 2.34c-.34.95-.66 1.9-.98 2.86-.31.98-.64 1.93-1 2.86l-.88 2.35-5.41 14.37h18.17l-5.49-14.37zm85.1-17.6h8.23v51.18h-11.5L664.87 270l-1.89-3.6c-.65-1.24-1.28-2.5-1.89-3.77-.6-1.24-1.15-2.43-1.68-3.55-.44-.97-.88-1.95-1.29-2.94h-.15c.14 2.44.22 4.89.27 7.33l.07 4.44c.03 1.5.03 2.78.03 3.85v27.36h-8.3v-51.19h12.54l15.2 28.82c.5.93 1.03 1.97 1.59 3.11l1.75 3.52c.59 1.2 1.14 2.37 1.67 3.52l1.37 3.04h.14l-.14-3.66-.15-4.8c-.09-3.1-.14-6.19-.15-9.28v-24.26zm55.04 0c4.36 0 8.42.46 12.2 1.35 3.8.91 7.07 2.39 9.83 4.44a21.38 21.38 0 0 1 6.54 8c1.58 3.27 2.37 7.28 2.37 12.02 0 4.5-.8 8.35-2.42 11.55-1.6 3.2-3.8 5.82-6.6 7.88a28.05 28.05 0 0 1-9.83 4.5 49.05 49.05 0 0 1-12.1 1.44h-12.67v-51.18h12.68zm-3.7 44.13h2.82c3.15 0 6.11-.31 8.86-.95a20.1 20.1 0 0 0 7.15-3.11 14.66 14.66 0 0 0 4.76-5.68c1.14-2.35 1.7-5.25 1.7-8.73 0-3.66-.56-6.68-1.7-9.05a14.08 14.08 0 0 0-4.76-5.65 19.28 19.28 0 0 0-7.15-2.93c-2.92-.58-5.9-.86-8.87-.84h-2.83v36.94h.01zm117.58-44.13c4.36 0 8.42.46 12.2 1.35 3.79.91 7.07 2.39 9.83 4.44a21.38 21.38 0 0 1 6.54 8c1.58 3.27 2.37 7.28 2.37 12.02 0 4.5-.8 8.35-2.42 11.55-1.6 3.2-3.8 5.82-6.6 7.88a28.05 28.05 0 0 1-9.83 4.5 49.06 49.06 0 0 1-12.1 1.44h-12.67v-51.18h12.68zm-3.7 44.13h2.82c3.15 0 6.11-.31 8.86-.95a20.1 20.1 0 0 0 7.15-3.11 14.67 14.67 0 0 0 4.75-5.68c1.14-2.35 1.71-5.25 1.71-8.73 0-3.66-.57-6.68-1.7-9.05a14.09 14.09 0 0 0-4.76-5.65 19.28 19.28 0 0 0-7.15-2.93c-2.92-.58-5.9-.86-8.87-.84h-2.83v36.94h.01zm96.06 7.05h-30.12v-51.18h29.68v7.42h-20.78v13.85h19.22v7.18h-19.22v15.32h21.23v7.42-.01zm57.65-42.82a24.85 24.85 0 0 0-10.09-2.2c-2.77 0-4.98.6-6.64 1.8a5.52 5.52 0 0 0-2.48 4.65 5.42 5.42 0 0 0 1.81 4.4c.71.68 1.7 1.37 2.93 2.05 1.24.69 2.84 1.42 4.82 2.2 4.65 1.82 8.01 3.89 10.09 6.24 2.08 2.34 3.12 5.32 3.12 8.94 0 2.35-.44 4.48-1.34 6.42a13.8 13.8 0 0 1-3.74 4.91 17.68 17.68 0 0 1-5.83 3.15 24.09 24.09 0 0 1-7.64 1.14 42.7 42.7 0 0 1-6.71-.51 31.03 31.03 0 0 1-6.19-1.69l.88-7.92a24.58 24.58 0 0 0 11.43 2.86c2.96 0 5.38-.64 7.24-1.9a6.12 6.12 0 0 0 2.77-5.35c.02-.95-.13-1.9-.44-2.8-.34-.89-.88-1.7-1.59-2.34a14.74 14.74 0 0 0-3.09-2.16 43.3 43.3 0 0 0-4.9-2.24 38.2 38.2 0 0 1-6-2.9 16.83 16.83 0 0 1-3.98-3.26 11.08 11.08 0 0 1-2.18-3.78c-.46-1.48-.7-3.03-.67-4.58 0-2.15.42-4.12 1.26-5.9.84-1.78 2.04-3.3 3.56-4.54a16.61 16.61 0 0 1 5.57-2.9 24.07 24.07 0 0 1 7.2-1.03c2.07 0 4.06.15 5.97.44 1.9.3 3.82.79 5.74 1.47l-.88 7.33zm43.4 42.82h-8.98v-51.18h8.98v51.18zm73.82-41.2a25.9 25.9 0 0 0-6.28-2.35 30.65 30.65 0 0 0-7.3-.88c-2.92 0-5.58.44-7.98 1.32a16.91 16.91 0 0 0-10.13 9.68c-.94 2.3-1.4 4.86-1.4 7.69 0 2.84.44 5.42 1.33 7.74.89 2.32 2.16 4.3 3.82 5.94a16.81 16.81 0 0 0 6.01 3.77c2.35.88 4.98 1.32 7.91 1.32 1.13 0 2.29-.05 3.44-.14 1.17-.1 2.32-.3 3.45-.59v-13.85h-11.04v-7.12h19.72v26.69a53.3 53.3 0 0 1-16.32 2.49c-4.16 0-7.94-.61-11.35-1.83a25.37 25.37 0 0 1-8.83-5.28 23.66 23.66 0 0 1-5.74-8.32 28.17 28.17 0 0 1-2.05-10.96c0-3.9.71-7.46 2.12-10.63a23.23 23.23 0 0 1 5.94-8.15 26.72 26.72 0 0 1 9.16-5.2 36.12 36.12 0 0 1 11.79-1.83c2.52 0 4.97.16 7.35.48 2.37.32 4.71.9 7.04 1.79l-.66 8.2v.01zm68.69-9.98h8.23v51.18h-11.49L1169.72 270l-1.89-3.6c-.65-1.24-1.28-2.5-1.89-3.77-.6-1.24-1.15-2.43-1.68-3.55-.45-.97-.88-1.95-1.29-2.94h-.15c.13 2.44.22 4.89.27 7.33l.07 4.44.03 3.85v27.36h-8.3v-51.19h12.53l15.21 28.82c.49.93 1.03 1.97 1.59 3.11l1.74 3.52c.61 1.2 1.15 2.37 1.68 3.52l1.37 3.04h.14c-.06-1.22-.1-2.44-.14-3.66l-.15-4.8c-.09-3.1-.14-6.19-.15-9.28v-24.26zm121 9.97a25.81 25.81 0 0 0-6.27-2.34 30.67 30.67 0 0 0-7.31-.88c-2.91 0-5.56.44-7.96 1.32a17.4 17.4 0 0 0-6.17 3.78 17.03 17.03 0 0 0-3.97 5.9 20.32 20.32 0 0 0-1.41 7.69c0 2.84.44 5.42 1.34 7.74.89 2.32 2.17 4.3 3.82 5.94a16.9 16.9 0 0 0 6.01 3.77c2.35.88 4.99 1.32 7.9 1.32 1.14 0 2.29-.05 3.45-.14a20.1 20.1 0 0 0 3.45-.59v-13.85h-11.05v-7.12h19.73v26.69a53.46 53.46 0 0 1-16.32 2.49c-4.15 0-7.94-.61-11.35-1.83a25.27 25.27 0 0 1-8.83-5.28 23.68 23.68 0 0 1-5.75-8.32 28.35 28.35 0 0 1-2.04-10.96c0-3.9.71-7.46 2.12-10.63a23.45 23.45 0 0 1 5.93-8.15 26.81 26.81 0 0 1 9.16-5.2 36.16 36.16 0 0 1 11.8-1.83c2.52 0 4.97.16 7.34.48 2.38.32 4.73.9 7.05 1.79l-.67 8.2v.01zm34.87-9.97h13.95c3.16 0 6.02.22 8.57.67 2.54.44 4.72 1.16 6.53 2.2 1.8 1.02 3.18 2.38 4.15 4.1.97 1.7 1.45 3.86 1.45 6.45 0 3.47-1.03 6.17-3.08 8.1-2.05 1.94-4.78 3.24-8.2 3.92v.15a8.75 8.75 0 0 1 4.15 2.5 17.6 17.6 0 0 1 2.75 4.46l8.39 18.63h-9.95l-6.6-15.4a23.43 23.43 0 0 0-1.6-3.26 6.45 6.45 0 0 0-1.92-2.05 7.3 7.3 0 0 0-2.83-1.06 25.5 25.5 0 0 0-4.26-.3h-2.52v22.07h-8.98v-51.18zm8.98 22.07h3.34c4.35 0 7.63-.57 9.83-1.72s3.29-3.12 3.29-5.91a6.92 6.92 0 0 0-.88-3.7 5.78 5.78 0 0 0-2.56-2.2c-1.31-.57-2.7-.92-4.12-1.06-1.85-.2-3.7-.3-5.56-.3h-3.34v14.89zm81.01-22.95c3.71 0 7.08.62 10.13 1.87 3.04 1.25 5.64 3 7.79 5.28a23.54 23.54 0 0 1 4.97 8.25 31.93 31.93 0 0 1 1.74 10.85c0 4.1-.6 7.8-1.78 11.12a23.33 23.33 0 0 1-5.08 8.38 22.5 22.5 0 0 1-7.94 5.32 27.68 27.68 0 0 1-10.42 1.87c-3.81 0-7.26-.62-10.35-1.87s-5.74-3-7.95-5.28a23.26 23.26 0 0 1-5.07-8.3 31.91 31.91 0 0 1-1.78-10.95c0-4.15.59-7.87 1.78-11.14a22.73 22.73 0 0 1 5.13-8.32 22.17 22.17 0 0 1 8.08-5.24 29.67 29.67 0 0 1 10.75-1.84zm-.59 6.97c-2.33 0-4.43.46-6.31 1.39-1.9.95-3.57 2.3-4.89 3.97a18.17 18.17 0 0 0-3.19 6.15 27.04 27.04 0 0 0-1.12 7.99c0 2.93.38 5.61 1.12 8.03.74 2.42 1.8 4.47 3.18 6.16 1.39 1.68 3.04 3 4.94 3.92 1.9.93 4.04 1.4 6.42 1.4a14.09 14.09 0 0 0 11.2-5.36 18.4 18.4 0 0 0 3.19-6.16c.74-2.4 1.11-5.06 1.11-7.99.03-2.74-.34-5.47-1.11-8.1a18.17 18.17 0 0 0-3.16-6.16 13.77 13.77 0 0 0-4.93-3.88 15 15 0 0 0-6.44-1.37l-.01.01zm97.41 23.68c0 6.99-1.71 12.45-5.12 16.39-3.41 3.93-8.66 5.9-15.73 5.9-3.81 0-7.01-.53-9.61-1.58a15.42 15.42 0 0 1-6.27-4.5 18.08 18.08 0 0 1-3.41-7.05c-.72-3-1.07-6.07-1.04-9.16v-29.76h9.05v29.02c0 2.5.2 4.74.6 6.71a14.27 14.27 0 0 0 1.93 5.03 8.57 8.57 0 0 0 3.52 3.1c1.46.71 3.27 1.07 5.45 1.07 2.23 0 4.09-.36 5.6-1.06a9.02 9.02 0 0 0 3.68-3.12 13.32 13.32 0 0 0 2-5.01c.39-1.98.6-4.22.6-6.71v-29.04h8.74v29.77h.01zm46.07-29.76c2.91 0 5.68.22 8.27.66 2.6.44 4.86 1.23 6.79 2.38a12.57 12.57 0 0 1 4.59 4.76c1.15 2.03 1.71 4.6 1.71 7.73 0 3.09-.58 5.64-1.74 7.67a13.03 13.03 0 0 1-4.71 4.8 20.93 20.93 0 0 1-6.82 2.5c-2.67.5-5.38.74-8.09.73h-3.49v19.94h-8.98v-51.18h12.47zm-3.49 24.19h2.82c1.98 0 3.78-.13 5.37-.37 1.61-.24 2.99-.68 4.13-1.32a6.41 6.41 0 0 0 2.6-2.65c.59-1.12.88-2.53.88-4.24 0-1.67-.28-3.04-.85-4.15a6.52 6.52 0 0 0-2.52-2.63 11.82 11.82 0 0 0-4.09-1.4 34.24 34.24 0 0 0-5.6-.4h-2.73v17.16h-.01z" clip-rule="evenodd"/></g><defs><clipPath id="a"><path fill="#fff" d="M0 0h1598.82v300H0z"/></clipPath></defs></svg>