<svg viewBox="0 0 389 68" preserveAspectRatio="xMinYMax meet" xmlns="http://www.w3.org/2000/svg" style="fill:var(--primary, #000)"><style>:root { --primary : #0A5C80; }</style><title>Logo</title><desc>Brand Logo for Country Living</desc><path d="M258.02 52.748h-32.29V50.76c0-2.305 2.922-.04 2.922-3.836V6.956c0-3.796-2.922-1.53-2.922-3.836V1.133h15.037V3.12c0 2.306-2.921.04-2.921 3.836V49.25h6.842c6.411 0 7.587-2.524 8.293-6.48.765-4.213 1.921-5.545 4.294-5.545h.745v15.523Zm11.919-39.69v34.523c0 3.478 2.764 1.271 2.764 3.597v1.59h-13.821v-1.59c0-2.306 2.764-.12 2.764-3.597V18.224c0-3.478-2.764-1.272-2.764-3.597v-1.59h11.057v.02ZM140.057 47.58V22.578c0-6.976-3.509-10.693-10.998-10.693-4.059 0-8.078 2.544-10.959 5.625v-4.452h-10.646v1.59c0 2.325 2.764.12 2.764 3.597V47.6c0 3.478-2.685 1.272-2.685 3.598v1.57h13.743v-1.57c0-2.326-2.765-.12-2.765-3.598V22.2c2.412-3.06 5.117-5.028 8.195-5.028 3.96 0 5.058 2.107 5.058 6.36V47.58c0 3.479-2.764 1.272-2.764 3.598v1.57h13.821v-1.57c-.019-2.326-2.764-.12-2.764-3.598Zm212.557 0V22.578c0-6.976-3.51-10.693-10.999-10.693-4.058 0-8.077 2.544-10.959 5.625v-4.452h-10.645v1.59c0 2.325 2.764.12 2.764 3.597V47.6c0 3.478-2.686 1.272-2.686 3.598v1.57h13.743v-1.57c0-2.326-2.764-.12-2.764-3.598V22.2c2.411-3.06 5.097-5.028 8.195-5.028 3.94 0 5.058 2.107 5.058 6.36V47.58c0 3.479-2.765 1.272-2.765 3.598v1.57h13.822v-1.57c0-2.326-2.764-.12-2.764-3.598ZM63.07 32.893c0-12.74-2.373-17.53-7.372-17.53-5 0-7.372 4.79-7.372 17.53 0 12.74 2.373 17.53 7.372 17.53 5 0 7.371-4.79 7.371-17.53Zm9.135 0c0 15.045-8.214 21.008-16.527 21.008-8.312 0-16.527-5.963-16.527-21.008 0-15.045 8.215-21.008 16.527-21.008 8.332.02 16.527 5.963 16.527 21.008Zm-34.27 15.204c-3.195 3.816-10.567 5.804-16.39 5.804C7.765 53.9 0 42.015 0 27.745.02 13.893 7.881.02 21.232.02c7.881 0 8.822 3.14 11.724 3.14.823 0 1.411-.457 1.725-1.093.255-.497.588-.934 1.314-.934h1.137v15.005h-.608c-7.254 0-1.804-12.64-14.449-12.64-4.352 0-11.743 4.492-11.743 23.552 0 19.477 7.293 23.392 12.076 23.392 12.665 0 7.685-12.998 14.94-12.998h.607v10.653h-.02Zm123.805-.557c-1.902 3.638-4.47 5.764-9.097 5.764-5.372 0-7.999-2.98-7.999-8.804V16.556h-4.372V14.21c5.372-1.292 7.999-5.049 9.097-9.739.275-1.192 1.235-1.968 2.764-1.968h.804v10.554h7.078v3.498h-7.078V46.05c0 1.988.686 3.001 2.176 3.001 1.902 0 2.863-1.312 4-3.26l2.627 1.75Z"/><path d="M370.532 63.341c-7.097 0-10.391-1.252-10.391-5.565 0-3.2 3.392-5.187 8.959-5.187h8.666c3.882 0 5.666.934 5.666 3.438 0 4.094-6 7.314-12.9 7.314Zm.686-47.958c4.372 0 5.94 4.353 5.94 11.349 0 6.976-1.568 11.348-5.94 11.348s-5.941-4.352-5.941-11.348 1.569-11.349 5.941-11.349Zm8.136 29.793h-13.939c-3.098 0-4.431-.696-4.431-2.604 0-1.411.784-2.504 1.96-3.32 2.294 1.293 5 1.948 7.823 1.948 10.822 0 14.507-7.99 14.507-14.07 0-6.162-2.646-10.932-6.979-13.396.627-1.53 1.549-2.922 2.666-2.922 1.804 0 1.059 2.445 4.529 2.445 2.313 0 3.509-1.908 3.509-3.936 0-2.206-1.294-4.213-4.489-4.213-4.235 0-7.313 3.597-8.901 7.473-1.451-.457-3.019-.696-4.705-.696-7.685 0-14.645 6.002-14.645 15.224 0 4.651 1.725 8.169 4.431 10.534-3.392 1.968-5.333 4.65-5.333 7.711 0 3.1 1.686 5.307 4.764 6.26-4.195 1.392-6.842 4.135-6.842 7.315 0 4.75 3.804 8.566 12.743 8.566 13.43 0 22.977-5.128 22.977-14.608 0-4.89-3.293-7.712-9.645-7.712Zm-198.303-33.39c-4.157 0-7.254 4.432-9.058 10.036v-8.764h-10.41v1.57c0 2.305 2.764.119 2.764 3.597V47.58c0 3.478-2.764 1.272-2.764 3.598v1.57h14.214v-1.57c0-2.326-3.157-.12-3.157-3.598V33.31c0-4.512 1.353-9.62 2.784-12.163.569-.994 1.039-1.61 1.804-1.61 1.784 0 1.705 2.206 4.666 2.206 2.666 0 4.411-2.067 4.411-5.048 0-2.902-1.608-4.91-5.254-4.91ZM103.906 47.58V13.058H92.848v1.59c0 2.305 2.765.119 2.765 3.597v25.38c-2.412 3.06-5.117 5.028-8.195 5.028-3.96 0-5.058-2.106-5.058-6.36V13.058H71.303v1.59c0 2.305 2.764.119 2.764 3.597v24.983c0 6.976 3.51 10.692 10.979 10.692 4.058 0 8.077-2.544 10.959-5.624v4.452h10.586v-1.57c0-2.326-2.685-.14-2.685-3.598ZM270.763 5.068c0 2.802-2.235 5.068-4.999 5.068s-4.98-2.266-4.98-5.068c0-2.802 2.235-5.068 4.98-5.068 2.764.02 4.999 2.286 4.999 5.068Zm45.718 7.99v34.523c0 3.478 2.764 1.271 2.764 3.597v1.59h-13.821v-1.59c0-2.306 2.764-.12 2.764-3.597V18.224c0-3.478-2.764-1.272-2.764-3.597v-1.59h11.057v.02Zm.844-7.99c0 2.802-2.235 5.068-5 5.068-2.764 0-4.979-2.266-4.979-5.068 0-2.802 2.235-5.068 4.979-5.068 2.765.02 5 2.286 5 5.068Zm-27.506 37.146 5.45-18.484c.687-2.325 1.177-3.955 1.177-5.843 0-2.882-2.529-1.272-2.529-2.683v-2.146h10.567v2.087c0 1.45-1.804-.1-2.608 2.345l-11.527 35.576h-5.019L273.292 17.41c-.725-2.166-2.431-.298-2.431-3.18v-1.172h14.194v1.928c0 1.907-2.45.198-2.45 2.424 0 1.193.784 3.419 1.098 4.432l6.116 20.372Zm-80.498-29.156v1.61c0 1.729 2.176.337 2.176 2.742 0 1.908-.647 4.273-1.666 7.732l-5.215 17.648-5.156-19.318c-.765-2.882-1.275-4.531-1.275-6.22 0-2.068 2.137-.696 2.137-2.346v-1.848h-13.351v1.65c0 1.887 1.608.814 2.196 2.782l11.234 37.682c-1.196 3.796-2.392 6.122-3.96 6.122-2.588 0-1.314-4.492-5.745-4.492-2.999 0-4.43 2.007-4.43 4.591 0 3.478 2.96 5.625 6.92 5.625 7.274 0 9.803-5.585 12.488-14.21l10.979-35.378c.745-2.425 2.431-1.212 2.431-2.663v-1.71h-9.763Z"/></svg>