<svg xmlns="http://www.w3.org/2000/svg" xmlns:xlink="http://www.w3.org/1999/xlink" version="1.1" x="0px" y="0px" viewBox="0 0 100 100" style="enable-background:new 0 0 100 100;" xml:space="preserve"><g><path d="M84.9,40c-2.7-3-6.7-3-6.9-3H62.3C61,37,60,36,60,34.7V23.2c0-0.2,0-0.4,0-0.7c-0.6-6.1-3.9-9.9-9.5-10.7   c-1.9-0.3-3.8,0.3-5.2,1.5c-1.5,1.3-2.3,3.1-2.3,5V29c0,3.5-1.4,8.5-3.7,10.6c-2.8,2.5-6.5,2.7-8.5,2.6c-0.3-0.7-1-1.2-1.8-1.2H13   c-1.1,0-2,0.9-2,2v39c0,1.1,0.9,2,2,2h16c1,0,1.8-0.8,2-1.7c2.7,2.2,5.5,2.7,5.7,2.7c0.1,0,0.2,0,0.4,0c0,0,0,0,0,0h34.3   c0.7,0,1.3-0.1,1.9-0.3c7.4-2.4,8.7-8.1,8.7-8.4l5-28c0,0,0-0.1,0-0.1C87.4,44.8,86.7,42,84.9,40z M27,80H15V45h12V80z M83,47.7   l-5,27.9c0,0.1-0.9,3.6-6,5.3C71.8,81,71.6,81,71.3,81H37.2c-0.8-0.2-4.7-1.3-6.2-5.4V46.2c2.7,0.1,7.3-0.3,11-3.7   c3.3-2.9,5-9.2,5-13.5V18.3c0-0.8,0.3-1.5,0.9-2c0.6-0.5,1.3-0.7,2-0.6c3.7,0.6,5.7,2.9,6.1,7.2c0,0.1,0,0.2,0,0.3v11.5   c0,3.5,2.8,6.3,6.3,6.3H78c0,0,2.5,0.1,3.9,1.7C82.9,43.8,83.3,45.5,83,47.7z"/></g></svg>